<?xml version="1.0" encoding="UTF-8" standalone="no"?>
<!-- Created with Inkscape (http://www.inkscape.org/) -->

<svg
   width="172.1553mm"
   height="210.47159mm"
   viewBox="0 0 172.1553 210.47159"
   version="1.1"
   id="svg1"
   inkscape:version="1.3 (0e150ed6c4, 2023-07-21)"
   sodipodi:docname="dibujo.svg"
   xmlns:inkscape="http://www.inkscape.org/namespaces/inkscape"
   xmlns:sodipodi="http://sodipodi.sourceforge.net/DTD/sodipodi-0.dtd"
   xmlns="http://www.w3.org/2000/svg"
   xmlns:svg="http://www.w3.org/2000/svg">
  <sodipodi:namedview
     id="namedview1"
     pagecolor="#ffffff"
     bordercolor="#000000"
     borderopacity="0.25"
     inkscape:showpageshadow="2"
     inkscape:pageopacity="0.0"
     inkscape:pagecheckerboard="0"
     inkscape:deskcolor="#d1d1d1"
     inkscape:document-units="mm"
     inkscape:zoom="0.70110129"
     inkscape:cx="293.82345"
     inkscape:cy="411.49546"
     inkscape:window-width="1920"
     inkscape:window-height="1001"
     inkscape:window-x="-9"
     inkscape:window-y="-9"
     inkscape:window-maximized="1"
     inkscape:current-layer="layer1" />
  <defs
     id="defs1">
    <inkscape:path-effect
       effect="bspline"
       id="path-effect4"
       is_visible="true"
       lpeversion="1.3"
       weight="33.333333"
       steps="2"
       helper_size="0"
       apply_no_weight="true"
       apply_with_weight="true"
       only_selected="false"
       uniform="false" />
    <inkscape:path-effect
       effect="bspline"
       id="path-effect3"
       is_visible="true"
       lpeversion="1.3"
       weight="33.333333"
       steps="2"
       helper_size="0"
       apply_no_weight="true"
       apply_with_weight="true"
       only_selected="false"
       uniform="false" />
  </defs>
  <g
     inkscape:label="Capa 1"
     inkscape:groupmode="layer"
     id="layer1"
     transform="translate(-27.108611,-39.643362)">
    <path
       style="fill:#000000;stroke-width:0.264583"
       d="m 145.90549,44.468234 c -1.17932,-1.572426 -3.6323,-1.132149 -6.91871,-0.03143 -3.28642,1.100717 -7.4061,2.861803 -11.05416,4.953154 -3.64806,2.091352 -6.8243,4.512841 -10.06353,8.019398 -3.23923,3.506556 -6.54126,8.09795 -8.77412,12.61086 -2.23286,4.51291 -3.39643,8.947064 -3.97823,12.453603 -0.5818,3.506539 -0.5818,6.085266 0.72334,7.406105 1.30514,1.32084 3.91532,1.383736 7.29608,0.67613 3.38076,-0.707607 7.53188,-2.185658 11.68313,-4.968895 4.15125,-2.783237 8.30237,-6.871464 11.49442,-10.818294 3.19205,-3.94683 5.42485,-7.752026 7.02874,-11.321469 1.60388,-3.569442 2.57877,-6.902924 3.11339,-10.362297 0.53463,-3.459373 0.62897,-7.044436 -0.55035,-8.616863 z"
       id="path3"
       inkscape:path-effect="#path-effect3"
       inkscape:original-d="m 147.17916,42.455528 c -2.45299,0.440277 -4.90597,0.880557 -7.35896,1.320837 -4.11984,1.761154 -8.23952,3.522236 -12.35927,5.283356 -3.17637,2.421586 -6.35261,4.843074 -9.52891,7.264612 -3.30216,4.591579 -6.60419,9.182973 -9.90629,13.774459 -1.16362,4.434332 -2.32719,8.868487 -3.49079,13.302731 0,2.578833 0,5.15756 0,7.73634 2.61028,0.0629 5.22046,0.125796 7.83069,0.188693 4.15129,-1.478111 8.30241,-2.956163 12.45362,-4.434245 4.15129,-4.088391 8.30241,-8.176619 12.45362,-12.264929 2.23289,-3.805349 4.46569,-7.610546 6.69854,-11.415821 0.97492,-3.33361 1.94981,-6.66709 2.92471,-10.000633 0.0943,-3.585205 0.1887,-7.170267 0.28304,-10.7554 z"
       transform="translate(9.029742,-3.8009388)" />
    <path
       style="fill:#000000;stroke-width:0.264583"
       d="m 106.58016,103.30967 c 0.55999,0.0946 0.55999,0.0946 0.55999,0.0946 4.02498,-1.28977 8.04997,-2.57955 12.09723,-3.913812 4.04726,-1.334262 8.11664,-2.712958 11.89704,-3.669175 3.78041,-0.956216 7.27162,-1.489904 10.29595,-1.712278 3.02432,-0.222375 5.58158,-0.133427 8.16013,0.146593 2.57855,0.280019 5.17824,0.751092 8.7739,1.867209 3.59566,1.116117 8.18706,2.877203 11.86656,4.952823 3.67951,2.07563 6.44693,4.46568 8.77414,6.69854 2.32721,2.23287 4.21409,4.30843 5.28334,5.47203 1.06925,1.1636 1.32083,1.41518 0.283,2.35865 -1.03782,0.94348 -3.36496,2.57877 -5.75508,4.6544 -2.39011,2.07563 -4.84305,4.59146 -6.88722,7.20172 -2.04417,2.61025 -3.67946,5.31477 -5.06321,8.55401 -1.38374,3.23923 -2.51587,7.01298 -3.14484,10.53525 -0.62898,3.52227 -0.75477,6.79285 -0.66042,9.59179 0.0944,2.79895 0.40883,5.12609 1.00636,7.8936 0.59754,2.7675 1.47808,5.97519 2.67314,8.99428 1.19505,3.01908 2.70455,5.8494 3.8996,7.83067 1.19505,1.98126 2.0756,3.11339 3.30211,4.46569 1.22651,1.35231 2.79891,2.9247 4.68584,4.49715 1.88693,1.57244 4.08829,3.14483 6.10101,4.49713 2.01273,1.3523 3.83671,2.48442 4.87451,3.17629 1.0378,0.69187 1.28939,0.94346 1.0378,2.23287 -0.2516,1.28941 -1.00635,3.61656 -2.26431,6.57276 -1.25796,2.9562 -3.01904,6.54126 -5.18902,10.50382 -2.16997,3.96256 -4.7487,8.30237 -7.642,12.57942 -2.8933,4.27704 -6.10098,8.49105 -9.15152,11.88752 -3.05054,3.39647 -5.94375,5.9752 -8.74269,7.86212 -2.79895,1.88693 -5.50347,3.08195 -7.42185,3.71092 -1.91837,0.62897 -3.05049,0.69186 -4.43424,0.72331 -1.38375,0.0315 -3.01905,0.0315 -4.87453,-0.0629 -1.85548,-0.0943 -3.93105,-0.28303 -6.06957,-0.88056 -2.13852,-0.59753 -4.33988,-1.60387 -6.91869,-2.57878 -2.57881,-0.97492 -5.53491,-1.91835 -8.14516,-2.61023 -2.61025,-0.69187 -4.8745,-1.13214 -6.85577,-1.41518 -1.98128,-0.28304 -3.67947,-0.40883 -5.7551,-0.25158 -2.07562,0.15725 -4.52856,0.59752 -7.17027,1.25795 -2.641703,0.66043 -5.472014,1.54097 -8.428208,2.54733 -2.956193,1.00637 -6.038088,2.13849 -8.868481,2.95616 -2.830393,0.81767 -5.409123,1.32083 -7.484743,1.57242 -2.075619,0.25159 -3.648014,0.25159 -5.723644,-0.37739 -2.07563,-0.62899 -4.654354,-1.88691 -6.981568,-3.17631 -2.327213,-1.2894 -4.402776,-2.61021 -6.604197,-4.62295 -2.201422,-2.01273 -4.528566,-4.71725 -7.484763,-8.52257 -2.956197,-3.80532 -6.541263,-8.7112 -9.528899,-13.30273 -2.987635,-4.59153 -5.377673,-8.86844 -7.830685,-14.37201 -2.453013,-5.50356 -4.968844,-12.23341 -6.792871,-18.17724 -1.824026,-5.94382 -2.956152,-11.10128 -3.805267,-16.0073 -0.849116,-4.90601 -1.415179,-9.5603 -1.698216,-13.8059 -0.283037,-4.24559 -0.283037,-8.08223 0.125803,-12.23348 0.408839,-4.15126 1.226484,-8.61686 2.610238,-13.23984 1.383755,-4.62298 3.333529,-9.40307 5.031764,-12.98822 1.698235,-3.58516 3.144836,-5.9752 5.000324,-8.36531 1.855487,-2.39012 4.119735,-4.78016 6.572746,-6.98158 2.453011,-2.20141 5.094637,-4.21408 7.736341,-5.91232 2.641703,-1.69823 5.283329,-3.081939 8.239525,-4.276993 2.956195,-1.195054 6.226778,-2.201388 9.403112,-2.798912 3.176333,-0.597524 6.258226,-0.786211 9.403112,-0.566065 3.144887,0.220147 6.352574,0.849105 9.466009,1.666777 3.113435,0.817673 6.132435,1.824006 8.93138,2.893267 2.798944,1.069266 5.377673,2.201386 7.421845,2.861806 2.044173,0.66042 3.553673,0.84911 4.868443,1.03805 1.31477,0.18893 2.43474,0.37811 2.99474,0.4727 z"
       id="path4"
       inkscape:path-effect="#path-effect4"
       inkscape:original-d="m 107.14015,103.40426 c 0,0 0,0 0,0 0,0 8.04997,-2.57955 12.07495,-3.869324 4.06954,-1.378751 8.13892,-2.757445 12.20838,-4.13617 3.49135,-0.533709 6.98256,-1.067398 10.47385,-1.601097 2.55736,0.08895 5.11462,0.177898 7.67193,0.266848 2.59979,0.471091 5.19948,0.942163 7.79923,1.413246 4.59157,1.761154 9.18297,3.522236 13.77446,5.283357 2.76752,2.39013 5.53494,4.78018 8.30241,7.17026 1.88695,2.07565 3.77383,4.15121 5.66074,6.22682 0.25159,0.25159 0.50317,0.50317 0.75476,0.75476 -2.32724,1.63536 -4.65438,3.27065 -6.98157,4.90597 -2.45304,2.51594 -4.90598,5.03177 -7.35896,7.54765 -1.63536,2.70463 -3.27065,5.40915 -4.90597,8.11372 -1.13217,3.7739 -2.2643,7.54765 -3.39645,11.32148 -0.12579,3.27071 -0.25158,6.54129 -0.37738,9.81194 0.31449,2.32724 0.62897,4.65438 0.94346,6.98158 0.88058,3.20781 1.76112,6.4155 2.64168,9.62325 1.50956,2.83042 3.01906,5.66074 4.52858,8.49111 0.88058,1.13216 1.76112,2.26429 2.64168,3.39644 1.57246,1.57245 3.14486,3.14485 4.71728,4.71728 2.20144,1.57246 4.4028,3.14485 6.6042,4.71728 1.82405,1.13217 3.64803,2.26429 5.47204,3.39644 0.25159,0.25159 0.50318,0.50318 0.75477,0.75477 -0.75478,2.32723 -1.50953,4.65438 -2.2643,6.98157 -1.76115,3.58521 -3.52223,7.17027 -5.28335,10.7554 -2.57883,4.33999 -5.15756,8.6798 -7.73634,13.0197 -3.20782,4.21419 -6.4155,8.4282 -9.62326,12.64231 -2.89332,2.57883 -5.78653,5.15756 -8.67979,7.73634 -2.70463,1.19507 -5.40915,2.39009 -8.11373,3.58513 -1.13217,0.0629 -2.26429,0.1258 -3.39644,0.18869 -1.63535,0 -3.27065,0 -4.90597,0 -2.07564,-0.18869 -4.15121,-0.37738 -6.22681,-0.56607 -2.20144,-1.00637 -4.4028,-2.01271 -6.60419,-3.01906 -2.95623,-0.94348 -5.91233,-1.88691 -8.86849,-2.83037 -2.26434,-0.44029 -4.52859,-0.88056 -6.79288,-1.32084 -1.69826,-0.12579 -3.39645,-0.25159 -5.09467,-0.37738 -2.45303,0.44029 -4.90597,0.88056 -7.35896,1.32084 -2.830422,0.88058 -5.660734,1.76112 -8.491103,2.64168 -3.082018,1.13217 -6.163914,2.26429 -9.24587,3.39644 -2.57883,0.50318 -5.15756,1.00635 -7.73634,1.50953 -1.572458,0 -3.144853,0 -4.71728,0 -2.578833,-1.25797 -5.15756,-2.51588 -7.73634,-3.77383 -2.075645,-1.32086 -4.151209,-2.64167 -6.226812,-3.96251 -2.327238,-2.70463 -4.654384,-5.40915 -6.981574,-8.11373 -3.585207,-4.90606 -7.170269,-9.81194 -10.755402,-14.71791 -2.390135,-4.27709 -4.780177,-8.554 -7.170267,-12.83101 -2.515933,-6.73012 -5.031765,-13.45997 -7.547648,-20.18996 -1.13217,-5.15766 -2.264295,-10.31512 -3.396442,-15.47268 -0.566085,-4.65447 -1.132148,-9.30876 -1.698221,-13.96315 0,-3.8368 0,-7.67344 0,-11.51016 0.817678,-4.46579 1.635324,-8.93139 2.452985,-13.39708 1.949849,-4.78027 3.899619,-9.56036 5.849429,-14.34053 1.446663,-2.39014 2.893264,-4.78018 4.339897,-7.17027 2.264341,-2.39014 4.52859,-4.78018 6.792886,-7.17027 2.64173,-2.01274 5.283354,-4.02541 7.92503,-6.03812 2.64173,-1.38376 5.283356,-2.767468 7.925033,-4.151204 3.270713,-1.006374 6.541296,-2.012707 9.811943,-3.01906 3.08202,-0.188695 6.163913,-0.377383 9.24587,-0.566073 3.207816,0.628983 6.415503,1.25794 9.623253,1.886913 3.019121,1.006372 6.03812,2.012706 9.057179,3.01906 2.578833,1.132164 5.15756,2.264294 7.73634,3.396444 1.509564,0.18869 3.019064,0.37738 4.528594,0.56607 1.12001,0.18918 2.23998,0.37836 3.35997,0.56754 z"
       transform="translate(8.532542,-4.1464248)" />
  </g>
</svg>
