<?xml version="1.0" encoding="UTF-8" standalone="no"?>
<!-- Created with Inkscape (http://www.inkscape.org/) -->

<svg
   version="1.1"
   id="svg1"
   width="588.80176"
   height="593.35162"
   viewBox="0 0 588.80176 593.35162"
   sodipodi:docname="logo ia.svg"
   inkscape:version="1.3 (0e150ed6c4, 2023-07-21)"
   xmlns:inkscape="http://www.inkscape.org/namespaces/inkscape"
   xmlns:sodipodi="http://sodipodi.sourceforge.net/DTD/sodipodi-0.dtd"
   xmlns="http://www.w3.org/2000/svg"
   xmlns:svg="http://www.w3.org/2000/svg">
  <defs
     id="defs1">
    <inkscape:path-effect
       effect="bspline"
       id="path-effect4"
       is_visible="true"
       lpeversion="1.3"
       weight="33.333333"
       steps="2"
       helper_size="0"
       apply_no_weight="true"
       apply_with_weight="true"
       only_selected="false"
       uniform="false" />
    <inkscape:path-effect
       effect="bspline"
       id="path-effect3"
       is_visible="true"
       lpeversion="1.3"
       weight="33.333333"
       steps="2"
       helper_size="0"
       apply_no_weight="true"
       apply_with_weight="true"
       only_selected="false"
       uniform="false" />
    <inkscape:path-effect
       effect="bspline"
       id="path-effect2"
       is_visible="true"
       lpeversion="1.3"
       weight="33.333333"
       steps="2"
       helper_size="0"
       apply_no_weight="true"
       apply_with_weight="true"
       only_selected="false"
       uniform="false" />
    <inkscape:path-effect
       effect="bspline"
       id="path-effect1"
       is_visible="true"
       lpeversion="1.3"
       weight="33.333333"
       steps="2"
       helper_size="0"
       apply_no_weight="true"
       apply_with_weight="true"
       only_selected="false"
       uniform="false" />
    <inkscape:path-effect
       effect="bspline"
       id="path-effect3-8"
       is_visible="true"
       lpeversion="1.3"
       weight="33.333333"
       steps="2"
       helper_size="0"
       apply_no_weight="true"
       apply_with_weight="true"
       only_selected="false"
       uniform="false" />
    <inkscape:path-effect
       effect="bspline"
       id="path-effect3-8-0"
       is_visible="true"
       lpeversion="1.3"
       weight="33.333333"
       steps="2"
       helper_size="0"
       apply_no_weight="true"
       apply_with_weight="true"
       only_selected="false"
       uniform="false" />
    <inkscape:path-effect
       effect="bspline"
       id="path-effect4-4"
       is_visible="true"
       lpeversion="1.3"
       weight="33.333333"
       steps="2"
       helper_size="0"
       apply_no_weight="true"
       apply_with_weight="true"
       only_selected="false"
       uniform="false" />
    <inkscape:path-effect
       effect="bspline"
       id="path-effect4-4-3"
       is_visible="true"
       lpeversion="1.3"
       weight="33.333333"
       steps="2"
       helper_size="0"
       apply_no_weight="true"
       apply_with_weight="true"
       only_selected="false"
       uniform="false" />
    <inkscape:path-effect
       effect="bspline"
       id="path-effect4-4-8"
       is_visible="true"
       lpeversion="1.3"
       weight="33.333333"
       steps="2"
       helper_size="0"
       apply_no_weight="true"
       apply_with_weight="true"
       only_selected="false"
       uniform="false" />
    <inkscape:path-effect
       effect="bspline"
       id="path-effect4-4-9"
       is_visible="true"
       lpeversion="1.3"
       weight="33.333333"
       steps="2"
       helper_size="0"
       apply_no_weight="true"
       apply_with_weight="true"
       only_selected="false"
       uniform="false" />
  </defs>
  <sodipodi:namedview
     id="namedview1"
     pagecolor="#ffffff"
     bordercolor="#000000"
     borderopacity="0.25"
     inkscape:showpageshadow="2"
     inkscape:pageopacity="0.0"
     inkscape:pagecheckerboard="0"
     inkscape:deskcolor="#d1d1d1"
     showgrid="false"
     inkscape:zoom="0.54345023"
     inkscape:cx="139.84721"
     inkscape:cy="365.25884"
     inkscape:window-width="1920"
     inkscape:window-height="1001"
     inkscape:window-x="-9"
     inkscape:window-y="-9"
     inkscape:window-maximized="1"
     inkscape:current-layer="g1" />
  <g
     inkscape:groupmode="layer"
     inkscape:label="Image"
     id="g1"
     transform="translate(-233.222,-179.26026)">
    <path
       style="fill:#484537"
       d="m 466.45998,225.74841 c -13.2283,3.25286 -32.31174,8.45744 -51.1785,15.39695 -18.86677,6.93952 -37.51613,15.61364 -57.25034,28.84211 -19.73422,13.22847 -40.55211,31.01042 -59.20199,49.66033 -18.64989,18.64992 -35.13072,38.16669 -46.62422,55.73228 -11.4935,17.56559 -17.99909,33.17901 -23.2037,55.73246 -5.20461,22.55345 -9.10797,52.04544 -10.62596,74.81561 -1.51799,22.77018 -0.65058,38.8173 2.16861,56.38293 2.8192,17.56563 7.58996,36.64868 15.83065,58.76838 8.2407,22.11969 19.95076,47.27463 33.39606,67.87623 13.4453,20.6016 28.625,36.64871 47.27495,52.04573 18.64995,15.39701 40.76895,30.14301 60.06941,40.76908 19.30046,10.62607 35.78128,17.13166 57.46727,22.77 21.686,5.63834 48.57576,10.4091 79.36984,10.19219 30.79408,-0.21691 65.49055,-5.42138 94.76652,-14.74638 29.27597,-9.325 53.12979,-22.76988 75.90002,-41.6367 22.77023,-18.86683 44.45552,-43.15435 62.23795,-68.31006 17.78244,-25.1557 31.66103,-51.17805 41.63652,-79.80352 9.97549,-28.62547 16.04738,-59.85229 17.56535,-87.61027 1.51797,-27.75797 -1.51797,-52.0455 -9.10809,-78.50237 -7.59013,-26.45687 -19.73389,-55.08146 -35.78153,-80.23712 -16.04764,-25.15566 -35.99811,-46.84095 -54.86487,-63.9728 -18.86676,-17.13185 -36.6487,-29.70932 -55.9492,-40.33541 -19.30051,-10.62609 -40.11839,-19.30021 -59.85259,-24.72166 -19.73419,-5.42146 -38.38355,-7.58999 -54.21426,-9.54172 -15.83071,-1.95173 -28.84188,-3.68655 -39.03425,-3.9034 -10.19236,-0.21684 -17.56536,1.08428 -30.79365,4.33713 z"
       id="path1"
       inkscape:path-effect="#path-effect1"
       inkscape:original-d="m 472.31512,223.7967 c -19.08344,5.20457 -38.16688,10.40914 -57.25032,15.61372 -18.65009,8.67446 -37.29945,17.34858 -55.94917,26.02287 -20.81871,17.78265 -41.6366,35.56459 -62.45489,53.34689 -16.48148,19.51754 -32.96231,39.03431 -49.44346,58.55146 -6.50585,15.61403 -13.01144,31.22745 -19.51715,46.84117 -3.90351,29.49318 -7.80686,58.98517 -11.7103,88.47776 0.86745,16.04776 1.73486,32.09488 2.60229,48.14231 4.77096,19.08383 9.54172,38.16688 14.31258,57.25032 11.71053,25.15595 23.42059,50.31089 35.13088,75.46633 15.18031,16.04776 30.36002,32.09487 45.54002,48.14231 22.11989,14.74659 44.23889,29.49259 66.35833,44.23888 16.48148,6.50585 32.9623,13.01144 49.44345,19.51716 26.89084,4.77095 53.7806,9.54172 80.6709,14.31258 34.69786,-5.20468 69.39433,-10.40915 104.09149,-15.61373 23.85478,-13.44541 47.7086,-26.8903 71.5629,-40.33545 21.68616,-24.2885 43.37145,-48.57602 65.05718,-72.86404 13.87914,-26.02339 27.75773,-52.04574 41.63659,-78.06861 6.07213,-31.22807 12.14401,-62.45489 18.21601,-93.68234 -3.03606,-24.2885 -6.072,-48.57603 -9.108,-72.86404 -12.14425,-28.62573 -24.28802,-57.25032 -36.43202,-85.87548 -19.95127,-21.68616 -39.90174,-43.37145 -59.85261,-65.05718 -17.78265,-12.57797 -35.56459,-25.15544 -53.34688,-37.73316 -20.81872,-8.67446 -41.6366,-17.34858 -62.4549,-26.02287 -18.65009,-2.16862 -37.29945,-4.33715 -55.94917,-6.50572 -13.0117,-1.73489 -26.02287,-3.46972 -39.03431,-5.20457 -7.37329,1.30117 -14.74629,2.60228 -22.11944,3.90343 z"
       transform="translate(15.585844,-42.127948)" />
    <path
       style="fill:#000000"
       d="m 533.90258,307.72046 c -29.49258,-15.83058 -33.82973,-16.69801 -60.72053,-1.73455 -26.89079,14.96346 -76.33326,45.75657 -100.83812,67.65929 -24.50487,21.90271 -24.07116,34.91389 2.81967,56.81678 26.89083,21.90289 80.23665,52.696 133.80094,53.12942 53.56428,0.43342 107.3438,-29.49228 134.66783,-50.96129 27.32402,-21.469 28.19143,-34.48017 1.30059,-56.38306 -26.89085,-21.9029 -81.53779,-52.69601 -111.03038,-68.52659 z"
       id="path2"
       inkscape:path-effect="#path-effect2"
       inkscape:original-d="m 508.74714,292.75731 c -4.33714,-0.86743 -8.67429,-1.73486 -13.01143,-2.60229 -49.44445,30.79435 -98.88692,61.58746 -148.33037,92.38119 0.43372,13.0117 0.86743,26.02288 1.30114,39.03431 53.34795,30.79435 106.69377,61.58746 160.04066,92.3812 53.78168,-29.92691 107.5612,-59.85261 161.34181,-89.77891 0.86744,-13.0117 1.73485,-26.02287 2.60228,-39.03431 -54.64912,-30.79435 -109.29606,-61.58746 -163.94409,-92.38119 z"
       transform="translate(20.790414,-60.343958)" />
    <path
       style="fill:#ffffff"
       d="m 375.59678,499.85599 c -27.75773,-9.32486 -28.62516,2.38543 -1.73431,23.42089 26.89085,21.03547 81.53778,51.39487 136.18636,50.96085 54.64858,-0.43403 109.29552,-31.66086 136.61954,-52.91298 27.32401,-21.25213 27.32401,-32.52848 0.43317,-22.76959 -26.89084,9.75888 -80.67037,40.552 -134.88523,40.76855 -54.21486,0.21656 -108.8618,-30.14285 -136.61953,-39.46772 z"
       id="path3"
       inkscape:path-effect="#path-effect3"
       inkscape:original-d="m 348.70648,478.82084 c -0.86743,11.71029 -1.73486,23.42058 -2.60229,35.13088 54.64913,30.36062 109.29606,60.72003 163.94409,91.08005 54.64913,-31.22807 109.29607,-62.4549 163.9441,-93.68234 0,-11.27681 0,-22.55316 0,-33.82973 -53.78168,30.79434 -107.56121,61.58746 -161.34181,92.38119 -54.64912,-30.36062 -109.29606,-60.72003 -163.94409,-91.08005 z"
       transform="translate(25.994994,-75.957678)" />
    <path
       style="fill:#ffffff"
       d="m 375.59678,499.85599 c -27.75773,-9.32486 -28.62516,2.38543 -1.73431,23.42089 26.89085,21.03547 81.53778,51.39487 136.18636,50.96085 54.64858,-0.43403 109.29552,-31.66086 136.61954,-52.91298 27.32401,-21.25213 27.32401,-32.52848 0.43317,-22.76959 -26.89084,9.75888 -80.67037,40.552 -134.88523,40.76855 -54.21486,0.21656 -108.8618,-30.14285 -136.61953,-39.46772 z"
       id="path3-1"
       inkscape:path-effect="#path-effect3-8"
       inkscape:original-d="m 348.70648,478.82084 c -0.86743,11.71029 -1.73486,23.42058 -2.60229,35.13088 54.64913,30.36062 109.29606,60.72003 163.94409,91.08005 54.64913,-31.22807 109.29607,-62.4549 163.9441,-93.68234 0,-11.27681 0,-22.55316 0,-33.82973 -53.78168,30.79434 -107.56121,61.58746 -161.34181,92.38119 -54.64912,-30.36062 -109.29606,-60.72003 -163.94409,-91.08005 z"
       transform="translate(28.954434,1.9970918)" />
    <path
       style="fill:#ffffff"
       d="m 375.59678,499.85599 c -27.75773,-9.32486 -28.62516,2.38543 -1.73431,23.42089 26.89085,21.03547 81.53778,51.39487 136.18636,50.96085 54.64858,-0.43403 109.29552,-31.66086 136.61954,-52.91298 27.32401,-21.25213 27.32401,-32.52848 0.43317,-22.76959 -26.89084,9.75888 -80.67037,40.552 -134.88523,40.76855 -54.21486,0.21656 -108.8618,-30.14285 -136.61953,-39.46772 z"
       id="path3-1-9"
       inkscape:path-effect="#path-effect3-8-0"
       inkscape:original-d="m 348.70648,478.82084 c -0.86743,11.71029 -1.73486,23.42058 -2.60229,35.13088 54.64913,30.36062 109.29606,60.72003 163.94409,91.08005 54.64913,-31.22807 109.29607,-62.4549 163.9441,-93.68234 0,-11.27681 0,-22.55316 0,-33.82973 -53.78168,30.79434 -107.56121,61.58746 -161.34181,92.38119 -54.64912,-30.36062 -109.29606,-60.72003 -163.94409,-91.08005 z"
       transform="translate(32.676164,86.877651)" />
    <path
       style="fill:#ffffff"
       d="m 289.46993,437.29089 c -3.10516,0.49835 -7.24537,1.95509 -10.35056,4.06357 -3.10518,2.10847 -5.17524,4.86855 -6.59365,7.24536 -1.41842,2.37681 -2.18511,4.37021 -2.72181,7.05371 -0.5367,2.68351 -0.84337,6.05695 -0.76669,8.77878 0.0767,2.72183 0.53669,4.79189 1.26507,6.82368 0.72837,2.03179 1.72507,4.02519 3.56519,5.98031 1.84013,1.95512 4.52354,3.87184 7.4754,5.36693 2.95185,1.49509 6.17195,2.56846 9.6605,2.87514 3.48855,0.30668 7.24534,-0.15334 10.31219,-1.0734 3.06684,-0.92006 5.44358,-2.30011 7.59038,-4.25523 2.1468,-1.95513 4.06352,-4.48521 5.52027,-7.20704 1.45676,-2.72184 2.45345,-5.63526 2.95181,-8.51044 0.49836,-2.87518 0.49836,-5.71193 -0.19169,-8.70212 -0.69005,-2.99019 -2.07009,-6.13362 -4.14022,-8.77878 -2.07014,-2.64515 -4.83022,-4.79189 -7.66707,-6.24864 -2.83684,-1.45675 -5.75026,-2.22344 -8.24208,-2.8368 -2.49181,-0.61337 -4.56188,-1.07339 -7.66704,-0.57503 z"
       id="path4"
       inkscape:path-effect="#path-effect4"
       inkscape:original-d="m 290.50498,436.3325 c -4.14021,1.45675 -8.28042,2.91349 -12.42064,4.37023 -2.07015,2.7602 -4.14021,5.52028 -6.21032,8.28043 -0.76672,1.99347 -1.53341,3.98687 -2.30012,5.98031 -0.30669,3.37357 -0.61336,6.74701 -0.92004,10.12052 0.46003,2.07015 0.92004,4.14021 1.38007,6.21032 0.99674,1.99347 1.99343,3.98687 2.99015,5.98031 2.68353,1.9168 5.36694,3.83353 8.05042,5.75029 3.22023,1.07341 6.44033,2.14678 9.66049,3.22017 3.75694,-0.46003 7.51373,-0.92005 11.27059,-1.38007 2.37683,-1.3801 4.75357,-2.76015 7.13036,-4.14022 1.91681,-2.53018 3.83353,-5.06026 5.7503,-7.59039 0.99674,-2.91354 1.99344,-5.82696 2.99015,-8.74045 0,-2.83687 0,-5.67362 0,-8.51044 -1.38009,-3.14356 -2.76014,-6.28699 -4.14021,-9.43048 -2.7602,-2.14682 -5.52028,-4.29356 -8.28043,-6.44034 -2.91354,-0.76672 -5.82696,-1.53341 -8.74045,-2.30011 -2.07014,-0.46004 -4.14021,-0.92005 -6.21032,-1.38008 z"
       transform="translate(3.6801895,-47.842469)" />
    <path
       style="fill:#ffffff"
       d="m 289.46993,437.29089 c -3.10516,0.49835 -7.24537,1.95509 -10.35056,4.06357 -3.10518,2.10847 -5.17524,4.86855 -6.59365,7.24536 -1.41842,2.37681 -2.18511,4.37021 -2.72181,7.05371 -0.5367,2.68351 -0.84337,6.05695 -0.76669,8.77878 0.0767,2.72183 0.53669,4.79189 1.26507,6.82368 0.72837,2.03179 1.72507,4.02519 3.56519,5.98031 1.84013,1.95512 4.52354,3.87184 7.4754,5.36693 2.95185,1.49509 6.17195,2.56846 9.6605,2.87514 3.48855,0.30668 7.24534,-0.15334 10.31219,-1.0734 3.06684,-0.92006 5.44358,-2.30011 7.59038,-4.25523 2.1468,-1.95513 4.06352,-4.48521 5.52027,-7.20704 1.45676,-2.72184 2.45345,-5.63526 2.95181,-8.51044 0.49836,-2.87518 0.49836,-5.71193 -0.19169,-8.70212 -0.69005,-2.99019 -2.07009,-6.13362 -4.14022,-8.77878 -2.07014,-2.64515 -4.83022,-4.79189 -7.66707,-6.24864 -2.83684,-1.45675 -5.75026,-2.22344 -8.24208,-2.8368 -2.49181,-0.61337 -4.56188,-1.07339 -7.66704,-0.57503 z"
       id="path4-7"
       inkscape:path-effect="#path-effect4-4"
       inkscape:original-d="m 290.50498,436.3325 c -4.14021,1.45675 -8.28042,2.91349 -12.42064,4.37023 -2.07015,2.7602 -4.14021,5.52028 -6.21032,8.28043 -0.76672,1.99347 -1.53341,3.98687 -2.30012,5.98031 -0.30669,3.37357 -0.61336,6.74701 -0.92004,10.12052 0.46003,2.07015 0.92004,4.14021 1.38007,6.21032 0.99674,1.99347 1.99343,3.98687 2.99015,5.98031 2.68353,1.9168 5.36694,3.83353 8.05042,5.75029 3.22023,1.07341 6.44033,2.14678 9.66049,3.22017 3.75694,-0.46003 7.51373,-0.92005 11.27059,-1.38007 2.37683,-1.3801 4.75357,-2.76015 7.13036,-4.14022 1.91681,-2.53018 3.83353,-5.06026 5.7503,-7.59039 0.99674,-2.91354 1.99344,-5.82696 2.99015,-8.74045 0,-2.83687 0,-5.67362 0,-8.51044 -1.38009,-3.14356 -2.76014,-6.28699 -4.14021,-9.43048 -2.7602,-2.14682 -5.52028,-4.29356 -8.28043,-6.44034 -2.91354,-0.76672 -5.82696,-1.53341 -8.74045,-2.30011 -2.07014,-0.46004 -4.14021,-0.92005 -6.21032,-1.38008 z"
       transform="translate(6.3851142,86.8561)" />
    <path
       style="fill:#ffffff"
       d="m 289.46993,437.29089 c -3.10516,0.49835 -7.24537,1.95509 -10.35056,4.06357 -3.10518,2.10847 -5.17524,4.86855 -6.59365,7.24536 -1.41842,2.37681 -2.18511,4.37021 -2.72181,7.05371 -0.5367,2.68351 -0.84337,6.05695 -0.76669,8.77878 0.0767,2.72183 0.53669,4.79189 1.26507,6.82368 0.72837,2.03179 1.72507,4.02519 3.56519,5.98031 1.84013,1.95512 4.52354,3.87184 7.4754,5.36693 2.95185,1.49509 6.17195,2.56846 9.6605,2.87514 3.48855,0.30668 7.24534,-0.15334 10.31219,-1.0734 3.06684,-0.92006 5.44358,-2.30011 7.59038,-4.25523 2.1468,-1.95513 4.06352,-4.48521 5.52027,-7.20704 1.45676,-2.72184 2.45345,-5.63526 2.95181,-8.51044 0.49836,-2.87518 0.49836,-5.71193 -0.19169,-8.70212 -0.69005,-2.99019 -2.07009,-6.13362 -4.14022,-8.77878 -2.07014,-2.64515 -4.83022,-4.79189 -7.66707,-6.24864 -2.83684,-1.45675 -5.75026,-2.22344 -8.24208,-2.8368 -2.49181,-0.61337 -4.56188,-1.07339 -7.66704,-0.57503 z"
       id="path4-7-1"
       inkscape:path-effect="#path-effect4-4-3"
       inkscape:original-d="m 290.50498,436.3325 c -4.14021,1.45675 -8.28042,2.91349 -12.42064,4.37023 -2.07015,2.7602 -4.14021,5.52028 -6.21032,8.28043 -0.76672,1.99347 -1.53341,3.98687 -2.30012,5.98031 -0.30669,3.37357 -0.61336,6.74701 -0.92004,10.12052 0.46003,2.07015 0.92004,4.14021 1.38007,6.21032 0.99674,1.99347 1.99343,3.98687 2.99015,5.98031 2.68353,1.9168 5.36694,3.83353 8.05042,5.75029 3.22023,1.07341 6.44033,2.14678 9.66049,3.22017 3.75694,-0.46003 7.51373,-0.92005 11.27059,-1.38007 2.37683,-1.3801 4.75357,-2.76015 7.13036,-4.14022 1.91681,-2.53018 3.83353,-5.06026 5.7503,-7.59039 0.99674,-2.91354 1.99344,-5.82696 2.99015,-8.74045 0,-2.83687 0,-5.67362 0,-8.51044 -1.38009,-3.14356 -2.76014,-6.28699 -4.14021,-9.43048 -2.7602,-2.14682 -5.52028,-4.29356 -8.28043,-6.44034 -2.91354,-0.76672 -5.82696,-1.53341 -8.74045,-2.30011 -2.07014,-0.46004 -4.14021,-0.92005 -6.21032,-1.38008 z"
       transform="translate(448.08191,-69.477948)" />
    <path
       style="fill:#ffffff"
       d="m 289.46993,437.29089 c -3.10516,0.49835 -7.24537,1.95509 -10.35056,4.06357 -3.10518,2.10847 -5.17524,4.86855 -6.59365,7.24536 -1.41842,2.37681 -2.18511,4.37021 -2.72181,7.05371 -0.5367,2.68351 -0.84337,6.05695 -0.76669,8.77878 0.0767,2.72183 0.53669,4.79189 1.26507,6.82368 0.72837,2.03179 1.72507,4.02519 3.56519,5.98031 1.84013,1.95512 4.52354,3.87184 7.4754,5.36693 2.95185,1.49509 6.17195,2.56846 9.6605,2.87514 3.48855,0.30668 7.24534,-0.15334 10.31219,-1.0734 3.06684,-0.92006 5.44358,-2.30011 7.59038,-4.25523 2.1468,-1.95513 4.06352,-4.48521 5.52027,-7.20704 1.45676,-2.72184 2.45345,-5.63526 2.95181,-8.51044 0.49836,-2.87518 0.49836,-5.71193 -0.19169,-8.70212 -0.69005,-2.99019 -2.07009,-6.13362 -4.14022,-8.77878 -2.07014,-2.64515 -4.83022,-4.79189 -7.66707,-6.24864 -2.83684,-1.45675 -5.75026,-2.22344 -8.24208,-2.8368 -2.49181,-0.61337 -4.56188,-1.07339 -7.66704,-0.57503 z"
       id="path4-7-51"
       inkscape:path-effect="#path-effect4-4-9"
       inkscape:original-d="m 290.50498,436.3325 c -4.14021,1.45675 -8.28042,2.91349 -12.42064,4.37023 -2.07015,2.7602 -4.14021,5.52028 -6.21032,8.28043 -0.76672,1.99347 -1.53341,3.98687 -2.30012,5.98031 -0.30669,3.37357 -0.61336,6.74701 -0.92004,10.12052 0.46003,2.07015 0.92004,4.14021 1.38007,6.21032 0.99674,1.99347 1.99343,3.98687 2.99015,5.98031 2.68353,1.9168 5.36694,3.83353 8.05042,5.75029 3.22023,1.07341 6.44033,2.14678 9.66049,3.22017 3.75694,-0.46003 7.51373,-0.92005 11.27059,-1.38007 2.37683,-1.3801 4.75357,-2.76015 7.13036,-4.14022 1.91681,-2.53018 3.83353,-5.06026 5.7503,-7.59039 0.99674,-2.91354 1.99344,-5.82696 2.99015,-8.74045 0,-2.83687 0,-5.67362 0,-8.51044 -1.38009,-3.14356 -2.76014,-6.28699 -4.14021,-9.43048 -2.7602,-2.14682 -5.52028,-4.29356 -8.28043,-6.44034 -2.91354,-0.76672 -5.82696,-1.53341 -8.74045,-2.30011 -2.07014,-0.46004 -4.14021,-0.92005 -6.21032,-1.38008 z"
       transform="translate(457.02471,75.574486)" />
  </g>
</svg>
